<?xml version="1.0" encoding="utf-8"?>
<!-- Generator: Adobe Illustrator 26.0.0, SVG Export Plug-In . SVG Version: 6.00 Build 0)  -->
<svg version="1.1" id="Layer_1" xmlns="http://www.w3.org/2000/svg" xmlns:xlink="http://www.w3.org/1999/xlink" x="0px" y="0px"
	 viewBox="0 0 505 220" style="enable-background:new 0 0 505 220;" xml:space="preserve">
<style type="text/css">
	.st0{fill:#FFFFFF;}
</style>
<g>
	<g>
		<path class="st0" d="M165.8,109.95c3.67-3.25,7.13-6.56,10.41-9.95c8.32-8.94,17.92-20.82,18.23-33.34
			c0-7.72-3.63-13.56-10.79-17.37c-7.23-3.85-16.15-4.48-20.83-4.51c-8.63,0.01-17.94,1.14-27.68,3.29
			c-1.21-4.14-2.53-8.1-3.98-11.85c-6-15.28-16.42-33.41-32.03-33.41c-0.12,0-0.23,0-0.35,0c-5.25,0.13-10.76,2.97-15.14,7.81
			C75.7,19.65,69.68,34.13,65.7,53.71c-0.1-0.03-0.2-0.07-0.3-0.1c-24.59-7.79-42.67-8.5-53.76-2.11
			C1.88,57.44-0.2,69.16,6.07,82.87c4.12,8.85,10.76,18.05,19.36,27.12c-2.41,2.51-4.68,5.04-6.79,7.57
			C5.52,133.6,0.37,147.14,3.33,157.81c1.89,6.71,7.89,11.84,16.05,13.71c3.47,0.76,7.27,1.13,11.41,1.13
			c9.84,0,21.54-2.15,34.94-6.4c1.17,5.6,2.53,10.98,4.11,16.19c3.77,11.62,9.47,25.78,20.26,32.15c3.1,1.73,6.22,2.59,9.36,2.59
			c3.68,0,7.38-1.19,11.06-3.57c6.89-4.45,11.77-11.94,14.07-16.01c4.17-7.52,7.72-16.19,10.57-25.72
			c9.38,2.1,18.25,3.19,26.31,3.19c3.21,0,6.29-0.17,9.22-0.52c4.55-0.57,11.06-2.09,16.25-6.03c5.03-3.83,7.56-8.96,7.5-15.29
			C194.05,140.78,184.41,126.23,165.8,109.95z M105.97,147.61c-13.69-6.3-29.04-14.59-43.45-24.12c-0.24-4.06-0.35-7.59-0.39-10.4
			c-0.01-1.03-0.02-2.08-0.03-3.13c0.02-4.62,0.15-9.12,0.39-13.51c14.42-9.54,29.77-17.84,43.48-24.14
			c3.52,1.74,7.07,3.6,10.68,5.59l0,0c0,0,0,0,0,0c2.68,1.5,6.75,3.85,11.62,6.94c1.34,17.46,1.09,35.13-0.11,50.3
			c-3.39,2.15-6.38,3.94-8.79,5.33c-0.9,0.51-1.8,1.03-2.72,1.54C113.05,144,109.49,145.86,105.97,147.61z M117.42,76.52
			c-1.84-1.04-5.12-2.86-9.49-5.1c0.51-0.23,1.01-0.45,1.51-0.68c5.74-2.5,11.2-4.7,16.41-6.6c0.98,6.06,1.71,12.29,2.24,18.57
			C123.25,79.76,119.47,77.64,117.42,76.52z M60.77,97.6c-0.19,4.89-0.25,9.11-0.25,12.36v0.01c0,0,0,0,0,0
			c0,1.45,0.02,2.99,0.05,4.62c0.04,2.63,0.11,5.2,0.2,7.73c-5.85-3.93-11.53-8.07-16.85-12.36
			C49.25,105.67,54.92,101.54,60.77,97.6z M107.9,148.49c3.76-1.93,6.99-3.68,9.52-5.08l0.01,0c0,0,0,0,0,0
			c1.26-0.71,2.6-1.47,4.01-2.29c2.23-1.29,4.41-2.58,6.55-3.87c-0.03,0.36-0.06,0.73-0.1,1.09c-0.6,6.17-1.33,11.96-2.19,17.39
			c-5.16-1.89-10.57-4.07-16.25-6.54C108.94,148.95,108.42,148.72,107.9,148.49z M143.04,124.94c0.14-2.37,0.24-4.76,0.31-7.17
			c0.22-7.65,0.08-15.31-0.39-22.85c5.95,4.4,12.18,9.46,18.08,15.03C155.18,115.51,148.97,120.55,143.04,124.94z M142.79,92.22
			c-0.82-11.17-2.37-22.03-4.6-32.17c11.01-3.25,20.56-4.88,28.58-4.88c3.39,0,6.52,0.29,9.36,0.88c4.89,1.1,8.2,3.3,9.83,6.54
			c2.59,5.13,0.59,11.98-1.54,16.82c-4.77,10.3-12.49,19.9-21.13,28.4C156.42,101.97,149.33,96.71,142.79,92.22z M142.87,127.7
			c7.48-5.11,14.25-10.27,20.44-15.57c8.63,8.49,16.35,18.09,21.12,28.38c3.06,6.95,3.6,12.77,1.55,16.83
			c-1.63,3.24-4.94,5.44-9.82,6.54c-9.57,1.96-22.25,0.62-37.86-3.98C140.54,149.82,142.09,139,142.87,127.7z M83.96,67.23
			c-6.82,3.54-13.48,7.41-19.87,11.51c0.96-7.39,2.27-14.42,3.93-21.14c6.87,1.87,13.86,4.22,20.98,7.09
			C87.32,65.51,85.64,66.36,83.96,67.23z M48.85,166.31c-8.52,1.08-18.46,1.79-27.66-1.14c-4.89-1.63-8.05-4.2-9.37-7.61
			c-1.6-4.12-0.55-9.71,3.03-16.13c4.59-7.83,11.27-15.57,19.24-22.98c8.12,7.4,17.48,14.6,27.78,21.32
			c0.75,8.24,1.83,15.97,3.24,23.32C59.63,164.47,54.22,165.54,48.85,166.31z M64.19,141.26c4.17,2.66,8.49,5.23,12.94,7.71
			c3.97,2.21,7.96,4.29,11.94,6.25c-7.15,2.87-14.15,5.24-21.04,7.11C66.29,155.14,65.06,147.96,64.19,141.26z M73.87,38.91
			c3.2-7.97,7.42-17,14.45-23.61c3.81-3.48,7.58-4.99,11.21-4.49c4.38,0.61,8.75,4.24,12.62,10.49c4.88,8.27,8.52,18.55,11.16,29.85
			c-10.4,3.08-21.14,7.23-31.92,12.38c-6.84-3.02-14.54-6.12-22.63-8.82C70.22,49.24,71.92,43.98,73.87,38.91z M64.88,57.95
			c-1.37,7.58-2.32,15.14-2.98,22.21c-10.13,6.65-19.53,13.89-27.77,21.36c-7.99-7.42-14.69-15.17-19.29-23.01
			c-3.64-6.53-4.66-11.96-3.04-16.14c1.32-3.41,4.48-5.98,9.36-7.61c4.87-1.55,9.93-2.08,14.88-2.08c4.43,0,8.76,0.43,12.78,0.94
			c5.37,0.76,10.78,1.83,16.25,3.21C65.02,57.2,64.95,57.57,64.88,57.95z M69.86,164.9c7.57-2.58,14.9-5.55,21.59-8.53
			c10.78,5.14,21.49,9.3,31.78,12.38c-3.58,15.88-8.57,27.61-14.93,35c-3.34,3.74-6.87,5.56-10.49,5.41
			c-5.74-0.23-10.75-5.32-13.94-9.53c-7.08-9.73-11.86-21.98-15.1-34.38C69.13,165.14,69.49,165.02,69.86,164.9z"/>
		<circle class="st0" cx="98.8" cy="109.96" r="16.4"/>
		<circle class="st0" cx="39.86" cy="50.38" r="9.25"/>
		<circle class="st0" cx="74.69" cy="188.59" r="9.25"/>
		<circle class="st0" cx="177.67" cy="95.42" r="9.25"/>
	</g>
	<g>
		<g>
			<path class="st0" d="M254.81,56.18h8.9l16.3,44.74h-8.9l-3.55-10.64H250.6l-3.61,10.64h-8.42L254.81,56.18z M252.65,84.14h12.87
				l-3.43-10.34c-0.44-1.32-0.83-2.62-1.17-3.88c-0.34-1.26-0.63-2.41-0.87-3.46c-0.28-1.2-0.54-2.35-0.78-3.43h-0.12
				c-0.32,1.24-0.64,2.51-0.96,3.79c-0.28,1.08-0.59,2.26-0.93,3.52c-0.34,1.26-0.69,2.42-1.05,3.46L252.65,84.14z"/>
			<path class="st0" d="M284.52,56.18h7.7v44.74h-7.7V56.18z"/>
			<path class="st0" d="M313.92,101.88c-2.49,0-4.73-0.44-6.74-1.32c-2-0.88-3.72-2.08-5.14-3.61c-1.42-1.52-2.52-3.32-3.28-5.38
				c-0.76-2.06-1.14-4.28-1.14-6.64c0-2.41,0.38-4.64,1.14-6.7c0.76-2.06,1.84-3.86,3.25-5.38c1.4-1.52,3.1-2.72,5.08-3.58
				c1.98-0.86,4.22-1.29,6.7-1.29c2.04,0,3.9,0.28,5.56,0.84c1.66,0.56,3.11,1.34,4.33,2.35c1.22,1,2.22,2.22,3.01,3.64
				c0.78,1.42,1.31,3,1.59,4.72h-7.46c-0.36-1.76-1.13-3.16-2.32-4.18c-1.18-1.02-2.74-1.53-4.66-1.53c-1.4,0-2.64,0.27-3.7,0.81
				c-1.06,0.54-1.94,1.31-2.65,2.32c-0.7,1-1.23,2.19-1.59,3.55c-0.36,1.36-0.54,2.85-0.54,4.45c0,1.56,0.18,3.02,0.54,4.36
				c0.36,1.34,0.89,2.51,1.59,3.49c0.7,0.98,1.58,1.75,2.65,2.32c1.06,0.56,2.29,0.84,3.7,0.84c2.12,0,3.8-0.58,5.02-1.74
				c1.22-1.16,1.93-2.81,2.13-4.93h7.46c-0.12,1.89-0.54,3.6-1.26,5.14c-0.72,1.54-1.71,2.87-2.98,3.97
				c-1.26,1.1-2.76,1.96-4.48,2.59C318.03,101.57,316.09,101.88,313.92,101.88z"/>
			<path class="st0" d="M341.07,70.46c-0.02,1.06-0.05,2.05-0.09,2.98h0.18c1.08-1.72,2.44-3.07,4.06-4.03
				c1.62-0.96,3.58-1.44,5.86-1.44c3.49,0,6.2,0.99,8.15,2.98c1.94,1.98,2.92,4.72,2.92,8.21v21.77h-7.64V80.41
				c0-1.92-0.53-3.43-1.59-4.51c-1.06-1.08-2.58-1.62-4.54-1.62c-1.08,0-2.07,0.19-2.95,0.57c-0.88,0.38-1.64,0.92-2.28,1.62
				c-0.64,0.7-1.14,1.53-1.5,2.5c-0.36,0.96-0.54,2.01-0.54,3.13v18.82h-7.64V56.18h7.64v12.03
				C341.1,68.65,341.09,69.4,341.07,70.46z"/>
			<path class="st0" d="M383.62,101.88c-2.57,0-4.86-0.44-6.89-1.32c-2.02-0.88-3.74-2.08-5.14-3.61c-1.4-1.52-2.48-3.32-3.22-5.38
				c-0.74-2.06-1.11-4.28-1.11-6.64c0-2.41,0.38-4.64,1.14-6.7c0.76-2.06,1.84-3.86,3.25-5.38c1.4-1.52,3.09-2.72,5.05-3.58
				c1.96-0.86,4.13-1.29,6.49-1.29c2.37,0,4.46,0.39,6.28,1.17c1.82,0.78,3.42,1.89,4.78,3.34c1.56,1.68,2.73,3.74,3.49,6.16
				c0.76,2.43,1.12,5.14,1.08,8.15h-23.99c0.28,2.77,1.15,5,2.62,6.7c1.46,1.7,3.54,2.56,6.22,2.56c1.84,0,3.36-0.37,4.54-1.11
				c1.18-0.74,2.03-1.77,2.56-3.1h7.46c-0.4,1.44-1.01,2.78-1.83,4c-0.82,1.22-1.85,2.29-3.1,3.19c-1.24,0.9-2.68,1.6-4.3,2.1
				C387.38,101.63,385.58,101.88,383.62,101.88z M383.2,73.5c-2.53,0-4.45,0.78-5.77,2.35c-1.32,1.56-2.15,3.61-2.47,6.13h16
				c-0.16-2.65-0.91-4.72-2.26-6.22C387.36,74.25,385.52,73.5,383.2,73.5z"/>
			<path class="st0" d="M404.18,68.81h7.4v4.87h0.18c1.04-1.8,2.35-3.21,3.94-4.21c1.58-1,3.48-1.5,5.68-1.5
				c2.04,0,3.8,0.5,5.26,1.5c1.46,1,2.56,2.51,3.28,4.51h0.12c1.28-2.08,2.79-3.61,4.51-4.57c1.72-0.96,3.59-1.44,5.59-1.44
				c3.29,0,5.84,0.99,7.67,2.98c1.82,1.98,2.74,4.72,2.74,8.21v21.77h-7.64V80.17c0-1.84-0.48-3.29-1.44-4.33
				c-0.96-1.04-2.22-1.56-3.79-1.56c-1.89,0-3.44,0.7-4.66,2.1c-1.22,1.4-1.83,3.25-1.83,5.53v19h-7.64V80.17
				c0-1.84-0.44-3.29-1.32-4.33c-0.88-1.04-2.13-1.56-3.73-1.56c-0.88,0-1.72,0.19-2.53,0.57c-0.8,0.38-1.51,0.9-2.13,1.56
				c-0.62,0.66-1.11,1.46-1.47,2.41c-0.36,0.94-0.54,1.97-0.54,3.1v19h-7.64V68.81z"/>
			<path class="st0" d="M462.21,111.86c-0.24,0-0.64-0.01-1.2-0.03c-0.56-0.02-1.14-0.05-1.74-0.09c-0.6-0.04-1.16-0.08-1.68-0.12
				c-0.52-0.04-0.84-0.08-0.96-0.12v-6.19h0.42c0.08,0.04,0.25,0.08,0.51,0.12c0.26,0.04,0.56,0.07,0.9,0.09
				c0.34,0.02,0.67,0.04,0.99,0.06c0.32,0.02,0.58,0.03,0.78,0.03c1.28,0,2.3-0.27,3.07-0.81c0.76-0.54,1.3-1.45,1.62-2.74
				c0-0.16,0.01-0.44,0.03-0.84c0.02-0.4,0.03-0.86,0.03-1.38c0-0.52-0.03-1.06-0.09-1.62c-0.06-0.56-0.17-1.06-0.33-1.5
				l-11.06-27.9h8.12l5.29,14.91c0.32,1,0.65,2.08,0.99,3.25c0.34,1.16,0.63,2.25,0.87,3.25c0.28,1.16,0.56,2.33,0.84,3.49h0.12
				c0.28-1.2,0.58-2.38,0.9-3.55c0.28-1,0.58-2.07,0.9-3.22c0.32-1.14,0.64-2.21,0.96-3.22l5.11-14.91h7.7l-12.45,33.92
				c-0.68,1.76-1.36,3.24-2.04,4.42c-0.68,1.18-1.44,2.12-2.29,2.83c-0.84,0.7-1.77,1.19-2.8,1.47
				C464.71,111.72,463.54,111.86,462.21,111.86z"/>
		</g>
		<g>
			<path class="st0" d="M257.28,157.21c-3.09,0-5.82-0.37-8.21-1.11c-2.39-0.74-4.4-1.78-6.04-3.13c-1.64-1.34-2.92-2.96-3.82-4.84
				c-0.9-1.88-1.39-3.97-1.47-6.25h8.36c0.6,5.77,4.35,8.66,11.25,8.66c1.2,0,2.35-0.13,3.43-0.39c1.08-0.26,2.03-0.66,2.86-1.2
				c0.82-0.54,1.46-1.22,1.92-2.04c0.46-0.82,0.69-1.79,0.69-2.92c0-1.2-0.27-2.19-0.81-2.98c-0.54-0.78-1.31-1.44-2.32-1.98
				c-1-0.54-2.22-1-3.64-1.38c-1.42-0.38-3.02-0.77-4.78-1.17c-2.09-0.48-4.06-1-5.92-1.56c-1.86-0.56-3.49-1.32-4.87-2.29
				c-1.38-0.96-2.49-2.17-3.31-3.64c-0.82-1.46-1.23-3.32-1.23-5.56c0-2.12,0.41-3.98,1.23-5.56c0.82-1.58,1.97-2.91,3.46-3.97
				c1.48-1.06,3.23-1.86,5.23-2.41c2-0.54,4.21-0.81,6.61-0.81c5.25,0,9.33,1.17,12.24,3.52c2.91,2.35,4.58,5.58,5.02,9.71h-8.12
				c-0.32-2.2-1.28-3.9-2.89-5.08c-1.6-1.18-3.73-1.77-6.37-1.77c-2.53,0-4.54,0.49-6.04,1.47c-1.5,0.98-2.26,2.38-2.26,4.18
				c0,1.04,0.26,1.9,0.78,2.59c0.52,0.68,1.27,1.26,2.26,1.74c0.98,0.48,2.16,0.9,3.55,1.26c1.38,0.36,2.94,0.72,4.66,1.08
				c2.08,0.44,4.08,0.96,5.98,1.56c1.9,0.6,3.6,1.41,5.08,2.44c1.48,1.02,2.67,2.34,3.55,3.94c0.88,1.6,1.32,3.61,1.32,6.01
				c0,2.25-0.44,4.23-1.32,5.95c-0.88,1.72-2.1,3.17-3.64,4.33c-1.54,1.16-3.38,2.06-5.5,2.68
				C262.07,156.89,259.76,157.21,257.28,157.21z"/>
			<path class="st0" d="M295.64,157.14c-2.49,0-4.74-0.44-6.77-1.32c-2.02-0.88-3.75-2.08-5.17-3.61c-1.42-1.52-2.53-3.32-3.31-5.38
				c-0.78-2.06-1.17-4.28-1.17-6.64c0-2.41,0.39-4.64,1.17-6.7c0.78-2.06,1.88-3.86,3.31-5.38c1.42-1.52,3.15-2.72,5.17-3.58
				c2.02-0.86,4.28-1.29,6.77-1.29c2.49,0,4.73,0.43,6.73,1.29c2,0.86,3.72,2.06,5.14,3.58c1.42,1.52,2.51,3.32,3.28,5.38
				c0.76,2.07,1.14,4.3,1.14,6.7c0,2.37-0.38,4.58-1.14,6.64c-0.76,2.07-1.85,3.86-3.28,5.38c-1.42,1.52-3.14,2.73-5.14,3.61
				C300.37,156.7,298.13,157.14,295.64,157.14z M295.58,151.37c1.4,0,2.64-0.28,3.7-0.84c1.06-0.56,1.95-1.34,2.68-2.35
				c0.72-1,1.27-2.18,1.65-3.55c0.38-1.36,0.57-2.85,0.57-4.45c0-1.6-0.19-3.1-0.57-4.48c-0.38-1.38-0.93-2.59-1.65-3.61
				c-0.72-1.02-1.61-1.81-2.68-2.38c-1.06-0.56-2.3-0.84-3.7-0.84c-1.4,0-2.65,0.28-3.73,0.84c-1.08,0.56-1.98,1.35-2.71,2.38
				c-0.72,1.02-1.26,2.22-1.62,3.61c-0.36,1.38-0.54,2.88-0.54,4.48c0,1.6,0.18,3.09,0.54,4.45c0.36,1.36,0.9,2.55,1.62,3.55
				c0.72,1,1.62,1.78,2.71,2.35C292.94,151.09,294.18,151.37,295.58,151.37z"/>
			<path class="st0" d="M317.41,111.44h7.7v44.74h-7.7V111.44z"/>
			<path class="st0" d="M352.83,156.18v-4.57h-0.12c-1.16,1.76-2.5,3.11-4,4.03c-1.5,0.92-3.4,1.38-5.68,1.38
				c-3.53,0-6.26-1.01-8.21-3.04c-1.94-2.02-2.92-4.78-2.92-8.27v-21.65h7.64v20.57c0,1.92,0.52,3.41,1.56,4.45
				c1.04,1.04,2.53,1.56,4.45,1.56c2.17,0,3.89-0.73,5.17-2.19c1.28-1.46,1.92-3.32,1.92-5.56v-18.82h7.58v32.11H352.83z"/>
			<path class="st0" d="M365.28,124.07h4.93v-10.22h7.52v10.22h6.43v5.23h-6.43v17.98c0,1.16,0.3,1.95,0.9,2.38
				c0.6,0.42,1.44,0.63,2.53,0.63c0.4,0,0.83-0.02,1.29-0.06c0.46-0.04,0.85-0.1,1.17-0.18h0.36V156c-0.64,0.12-1.38,0.23-2.22,0.33
				c-0.84,0.1-1.78,0.15-2.83,0.15c-1.28,0-2.47-0.13-3.55-0.39c-1.08-0.26-2-0.68-2.77-1.26c-0.76-0.58-1.35-1.35-1.77-2.32
				c-0.42-0.96-0.63-2.14-0.63-3.55V129.3h-4.93V124.07z"/>
			<path class="st0" d="M389.39,111.44h7.82v7.4h-7.82V111.44z M389.51,124.07h7.64v32.11h-7.64V124.07z"/>
			<path class="st0" d="M418.85,157.14c-2.49,0-4.74-0.44-6.77-1.32c-2.02-0.88-3.75-2.08-5.17-3.61c-1.42-1.52-2.53-3.32-3.31-5.38
				c-0.78-2.06-1.17-4.28-1.17-6.64c0-2.41,0.39-4.64,1.17-6.7c0.78-2.06,1.88-3.86,3.31-5.38c1.42-1.52,3.15-2.72,5.17-3.58
				c2.02-0.86,4.28-1.29,6.77-1.29c2.49,0,4.73,0.43,6.73,1.29c2,0.86,3.72,2.06,5.14,3.58c1.42,1.52,2.51,3.32,3.28,5.38
				c0.76,2.07,1.14,4.3,1.14,6.7c0,2.37-0.38,4.58-1.14,6.64c-0.76,2.07-1.85,3.86-3.28,5.38c-1.42,1.52-3.14,2.73-5.14,3.61
				C423.58,156.7,421.34,157.14,418.85,157.14z M418.79,151.37c1.4,0,2.64-0.28,3.7-0.84c1.06-0.56,1.95-1.34,2.68-2.35
				c0.72-1,1.27-2.18,1.65-3.55c0.38-1.36,0.57-2.85,0.57-4.45c0-1.6-0.19-3.1-0.57-4.48c-0.38-1.38-0.93-2.59-1.65-3.61
				c-0.72-1.02-1.61-1.81-2.68-2.38c-1.06-0.56-2.3-0.84-3.7-0.84c-1.4,0-2.65,0.28-3.73,0.84c-1.08,0.56-1.98,1.35-2.71,2.38
				c-0.72,1.02-1.26,2.22-1.62,3.61c-0.36,1.38-0.54,2.88-0.54,4.48c0,1.6,0.18,3.09,0.54,4.45c0.36,1.36,0.9,2.55,1.62,3.55
				c0.72,1,1.62,1.78,2.71,2.35C416.15,151.09,417.39,151.37,418.79,151.37z"/>
			<path class="st0" d="M447.96,128.76h0.18c1.04-1.8,2.4-3.18,4.06-4.12c1.66-0.94,3.64-1.41,5.92-1.41c3.49,0,6.2,0.99,8.15,2.98
				c1.94,1.98,2.92,4.72,2.92,8.21v21.77h-7.64v-20.51c0-1.92-0.53-3.43-1.59-4.51c-1.06-1.08-2.58-1.62-4.54-1.62
				c-1.08,0-2.07,0.19-2.95,0.57c-0.88,0.38-1.64,0.92-2.28,1.62c-0.64,0.7-1.14,1.53-1.5,2.5c-0.36,0.96-0.54,2.01-0.54,3.13v18.82
				h-7.64v-32.11h7.46V128.76z"/>
			<path class="st0" d="M488.79,157.21c-4.61,0-8.19-1-10.73-3.01c-2.55-2-3.94-4.63-4.18-7.88h7.34c0.32,1.92,1.16,3.32,2.53,4.18
				c1.36,0.86,3.07,1.29,5.11,1.29c2.12,0,3.69-0.41,4.69-1.23c1-0.82,1.5-1.87,1.5-3.16c0-0.8-0.2-1.45-0.6-1.95
				c-0.4-0.5-0.96-0.92-1.68-1.26c-0.72-0.34-1.59-0.62-2.62-0.84c-1.02-0.22-2.16-0.45-3.4-0.69c-1.52-0.28-2.99-0.62-4.39-1.02
				c-1.4-0.4-2.65-0.95-3.73-1.65c-1.08-0.7-1.95-1.62-2.62-2.77c-0.66-1.14-0.99-2.62-0.99-4.42c0-1.52,0.31-2.88,0.93-4.06
				c0.62-1.18,1.48-2.18,2.59-3.01c1.1-0.82,2.44-1.44,4-1.86c1.56-0.42,3.29-0.63,5.17-0.63c4.29,0,7.53,0.87,9.71,2.62
				c2.18,1.74,3.48,4.02,3.88,6.83h-7.28c-0.56-2.85-2.69-4.27-6.37-4.27c-1.8,0-3.16,0.36-4.06,1.08c-0.9,0.72-1.35,1.64-1.35,2.77
				c0,0.72,0.2,1.3,0.6,1.74c0.4,0.44,0.96,0.81,1.68,1.11c0.72,0.3,1.58,0.55,2.59,0.75c1,0.2,2.1,0.42,3.31,0.66
				c1.52,0.28,3.01,0.61,4.45,0.99c1.44,0.38,2.74,0.94,3.88,1.68c1.14,0.74,2.05,1.72,2.74,2.95c0.68,1.22,1.02,2.82,1.02,4.78
				c0,1.68-0.34,3.17-1.02,4.45c-0.68,1.28-1.63,2.36-2.86,3.22c-1.22,0.86-2.68,1.51-4.36,1.95
				C492.58,156.98,490.75,157.21,488.79,157.21z"/>
		</g>
	</g>
</g>
</svg>
